<?xml version="1.0" standalone="no"?><!DOCTYPE svg PUBLIC "-//W3C//DTD SVG 1.1//EN" "http://www.w3.org/Graphics/SVG/1.1/DTD/svg11.dtd"><svg t="1660182386759" class="icon" viewBox="0 0 1024 1024" version="1.1" xmlns="http://www.w3.org/2000/svg" p-id="4302" width="32" height="32" xmlns:xlink="http://www.w3.org/1999/xlink"><defs><style type="text/css">@font-face { font-family: "feedback-iconfont"; src: url("//at.alicdn.com/t/font_1031158_u69w8yhxdu.woff2?t=1630033759944") format("woff2"), url("//at.alicdn.com/t/font_1031158_u69w8yhxdu.woff?t=1630033759944") format("woff"), url("//at.alicdn.com/t/font_1031158_u69w8yhxdu.ttf?t=1630033759944") format("truetype"); }
</style></defs><path d="M754.907429 627.748571l29.44 58.916572a18.285714 18.285714 0 0 1-32.694858 16.384l-26.258285-52.48c-53.540571 36.937143-118.308571 59.172571-195.108572 62.208V768a18.285714 18.285714 0 1 1-36.571428 0v-55.222857c-76.8-3.035429-141.568-25.234286-195.108572-62.208l-26.258285 52.48a18.285714 18.285714 0 0 1-32.694858-16.384l29.44-58.88a379.611429 379.611429 0 0 1-87.003428-109.494857 264.886857 264.886857 0 0 1-16.566857-37.083429 18.285714 18.285714 0 1 1 34.669714-11.556571c2.011429 5.961143 6.582857 17.042286 14.262857 31.524571a343.296 343.296 0 0 0 50.468572 71.606857c59.428571 64.877714 140.214857 103.68 246.637714 103.789715a18.651429 18.651429 0 0 1 0.877714 0c106.422857-0.109714 187.209143-38.912 246.637714-103.789715a343.296 343.296 0 0 0 50.468572-71.606857c7.68-14.482286 12.251429-25.6 14.262857-31.524571a18.285714 18.285714 0 1 1 34.669714 11.556571c-2.56 7.753143-7.972571 20.699429-16.603428 37.046857a379.611429 379.611429 0 0 1-86.966857 109.494857z" p-id="4303"></path></svg>