<?xml version="1.0" standalone="no"?><!DOCTYPE svg PUBLIC "-//W3C//DTD SVG 1.1//EN" "http://www.w3.org/Graphics/SVG/1.1/DTD/svg11.dtd"><svg t="1660182396812" class="icon" viewBox="0 0 1024 1024" version="1.1" xmlns="http://www.w3.org/2000/svg" p-id="4505" width="32" height="32" xmlns:xlink="http://www.w3.org/1999/xlink"><defs><style type="text/css">@font-face { font-family: "feedback-iconfont"; src: url("//at.alicdn.com/t/font_1031158_u69w8yhxdu.woff2?t=1630033759944") format("woff2"), url("//at.alicdn.com/t/font_1031158_u69w8yhxdu.woff?t=1630033759944") format("woff"), url("//at.alicdn.com/t/font_1031158_u69w8yhxdu.ttf?t=1630033759944") format("truetype"); }
</style></defs><path d="M725.394286 373.430857l26.258285-52.48a18.285714 18.285714 0 1 1 32.694858 16.384l-29.44 58.88a379.611429 379.611429 0 0 1 87.003428 109.494857c8.594286 16.420571 14.006857 29.330286 16.566857 37.083429a18.285714 18.285714 0 0 1 0 11.556571c-2.56 7.753143-7.972571 20.662857-16.603428 37.046857a379.611429 379.611429 0 0 1-55.808 79.250286C719.872 742.838857 629.357714 786.285714 512 786.285714c-117.394286 0-207.872-43.446857-274.066286-115.638857A379.611429 379.611429 0 0 1 182.125714 591.36a264.886857 264.886857 0 0 1-16.603428-37.046857 18.285714 18.285714 0 0 1 0-11.556572c2.56-7.753143 7.972571-20.662857 16.603428-37.046857a379.611429 379.611429 0 0 1 86.966857-109.494857l-29.44-58.916571a18.285714 18.285714 0 0 1 32.694858-16.384l26.258285 52.48C352.146286 336.493714 416.914286 314.258286 493.714286 311.222857V256a18.285714 18.285714 0 1 1 36.571428 0v55.222857c76.8 3.035429 141.568 25.234286 195.108572 62.208z m-510.902857 200.886857a343.296 343.296 0 0 0 50.432 71.606857C324.388571 710.875429 405.357714 749.714286 512 749.714286c106.642286 0 187.574857-38.838857 247.076571-103.789715a343.296 343.296 0 0 0 50.468572-71.606857 275.382857 275.382857 0 0 0 12.105143-25.746285 275.382857 275.382857 0 0 0-12.105143-25.746286 343.296 343.296 0 0 0-50.468572-71.606857C699.611429 386.267429 618.642286 347.428571 512 347.428571c-106.642286 0-187.574857 38.838857-247.076571 103.789715a343.296 343.296 0 0 0-50.468572 71.606857 275.382857 275.382857 0 0 0-12.105143 25.746286c2.486857 6.290286 6.473143 15.104 12.105143 25.746285zM512 384a128 128 0 0 1 128 128v73.142857a128 128 0 0 1-256 0v-73.142857a128 128 0 0 1 128-128z m0 36.571429a91.428571 91.428571 0 0 0-91.428571 91.428571v73.142857a91.428571 91.428571 0 1 0 182.857142 0v-73.142857a91.428571 91.428571 0 0 0-91.428571-91.428571z" p-id="4506"></path></svg>